# xmcd
#
# Track frame offsets: 
#        150
#        22451
#        44404
#        59854
#        75152
#        88052
#        102151
#        114451
#        120550
#        133790
#        141536
#        159611
#        185897
#        203897
#        219399
#        231709
#        247284
#        260570
#        276709
#        293097
#        304046
#        315296
#        332399
#
# Disc length: 4715 seconds
#
# Revision: 0
# Processed by: cddbd v1.5.2PL0 Copyright (c) Steve Scherf et al.
# Submitted via: ExactAudioCopyFreeDBPlugin 1.0
#
DISCID=71126917
DTITLE=Jagobar - ...an old fashioned vocal sound
DYEAR=2006
DGENRE=Vocal
TTITLE0=Autumn Leaves
TTITLE1=Ain't Misbehavin
TTITLE2=Ain't She Sweet
TTITLE3=Amen
TTITLE4=Shadrack
TTITLE5=Swing Low
TTITLE6=Down by the Riverside
TTITLE7=In The Evening
TTITLE8=Montagabend
TTITLE9=Shine On Me
TTITLE10=Bags Groove
TTITLE11=Georgia
TTITLE12=Bill Bailey
TTITLE13=Ain't She Sweet?
TTITLE14=When I'm Sixty Four
TTITLE15=For The Longest Time
TTITLE16=When The Saints
TTITLE17=Wade in The Water
TTITLE18=Amazing Grace
TTITLE19=Go Down, Moses
TTITLE20=Joshua
TTITLE21=Ave MAria no morro
TTITLE22=Oh Happy Day
EXTD=
EXTT0=
EXTT1=
EXTT2=
EXTT3=
EXTT4=
EXTT5=
EXTT6=
EXTT7=
EXTT8=
EXTT9=
EXTT10=
EXTT11=
EXTT12=
EXTT13=
EXTT14=
EXTT15=
EXTT16=
EXTT17=
EXTT18=
EXTT19=
EXTT20=
EXTT21=
EXTT22=
PLAYORDER=
